<svg xmlns="http://www.w3.org/2000/svg" width="24" height="24" viewBox="0 0 24 24" fill="none">
<path fill-rule="evenodd" clip-rule="evenodd" d="M6.94266 2.08337C3.991 2.08337 2.0835 4.10521 2.0835 7.23537V16.7647C2.0835 19.8949 3.991 21.9167 6.94266 21.9167H17.0553C20.0082 21.9167 21.9168 19.8949 21.9168 16.7647V7.23537C21.9168 4.10521 20.0082 2.08337 17.0565 2.08337H6.94266ZM17.0553 23.6667H6.94266C2.98883 23.6667 0.333496 20.8924 0.333496 16.7647V7.23537C0.333496 3.10771 2.98883 0.333374 6.94266 0.333374H17.0565C21.0103 0.333374 23.6668 3.10771 23.6668 7.23537V16.7647C23.6668 20.8924 21.0103 23.6667 17.0553 23.6667Z" fill="black"/>
<path fill-rule="evenodd" clip-rule="evenodd" d="M10.6161 15.6435C10.3932 15.6435 10.1681 15.5584 9.99772 15.3869L7.22805 12.6184C6.88622 12.2765 6.88622 11.7235 7.22805 11.3817C7.56989 11.0399 8.12289 11.0399 8.46472 11.3817L10.6161 13.5307L15.5347 8.61319C15.8766 8.27135 16.4296 8.27135 16.7714 8.61319C17.1132 8.95502 17.1132 9.50802 16.7714 9.84985L11.2344 15.3869C11.0641 15.5584 10.8401 15.6435 10.6161 15.6435Z" fill="black"/>
</svg>