<svg xmlns="http://www.w3.org/2000/svg" width="18" height="18" viewBox="0 0 18 18" fill="none">
<path d="M10.6491 8.99987L17.6579 16.0091C18.114 16.465 18.114 17.2021 17.6579 17.6581C17.202 18.114 16.4649 18.114 16.0089 17.6581L8.99989 10.6489L1.99106 17.6581C1.53493 18.114 0.798002 18.114 0.342092 17.6581C-0.114031 17.2021 -0.114031 16.465 0.342092 16.0091L7.35093 8.99987L0.342092 1.99067C-0.114031 1.53475 -0.114031 0.797592 0.342092 0.341673C0.5693 0.114248 0.868044 0 1.16657 0C1.4651 0 1.76363 0.114248 1.99106 0.341673L8.99989 7.35087L16.0089 0.341673C16.2364 0.114248 16.5349 0 16.8334 0C17.132 0 17.4305 0.114248 17.6579 0.341673C18.114 0.797592 18.114 1.53475 17.6579 1.99067L10.6491 8.99987Z" fill="black"/>
</svg>