<svg xmlns="http://www.w3.org/2000/svg" width="23" height="24" viewBox="0 0 23 24" fill="none">
<path fill-rule="evenodd" clip-rule="evenodd" d="M11.2877 23.6667C9.7069 23.6667 8.16574 23.6492 6.6409 23.6177C4.69024 23.5792 3.34041 22.3145 3.11991 20.3172C2.75241 17.0038 2.12357 9.19418 2.11774 9.11601C2.07807 8.63418 2.43741 8.21184 2.91924 8.17334C3.39407 8.16051 3.82341 8.49418 3.86191 8.97484C3.86774 9.05418 4.49541 16.837 4.85941 20.1247C4.98424 21.2598 5.59674 21.8455 6.67707 21.8677C9.59374 21.9295 12.5699 21.933 15.7782 21.8747C16.9262 21.8525 17.5469 21.2785 17.6752 20.1165C18.0369 16.8568 18.6669 9.05418 18.6739 8.97484C18.7124 8.49418 19.1382 8.15818 19.6154 8.17334C20.0972 8.21301 20.4566 8.63418 20.4181 9.11601C20.4111 9.19535 19.7787 17.0248 19.4147 20.309C19.1884 22.3472 17.8421 23.5873 15.8097 23.6247C14.2546 23.6515 12.7542 23.6667 11.2877 23.6667Z" fill="black"/>
<path fill-rule="evenodd" clip-rule="evenodd" d="M21.1593 6.1543H1.375C0.892 6.1543 0.5 5.7623 0.5 5.2793C0.5 4.7963 0.892 4.4043 1.375 4.4043H21.1593C21.6423 4.4043 22.0343 4.7963 22.0343 5.2793C22.0343 5.7623 21.6423 6.1543 21.1593 6.1543Z" fill="black"/>
<path fill-rule="evenodd" clip-rule="evenodd" d="M17.3472 6.15424C16.0195 6.15424 14.8668 5.20807 14.6055 3.90607L14.322 2.48741C14.2625 2.27157 14.0163 2.08374 13.7363 2.08374H8.79784C8.51785 2.08374 8.27168 2.27157 8.20051 2.54107L7.92868 3.90607C7.66851 5.20807 6.51468 6.15424 5.18701 6.15424C4.70401 6.15424 4.31201 5.76224 4.31201 5.27924C4.31201 4.79624 4.70401 4.40424 5.18701 4.40424C5.68401 4.40424 6.11568 4.04957 6.21368 3.56191L6.49718 2.14324C6.78535 1.05591 7.72685 0.33374 8.79784 0.33374H13.7363C14.8073 0.33374 15.7488 1.05591 16.0253 2.09074L16.3217 3.56191C16.4185 4.04957 16.8502 4.40424 17.3472 4.40424C17.8302 4.40424 18.2222 4.79624 18.2222 5.27924C18.2222 5.76224 17.8302 6.15424 17.3472 6.15424Z" fill="black"/>
</svg>