<svg xmlns="http://www.w3.org/2000/svg" width="68" height="68" viewBox="0 0 68 68" fill="none">
<mask id="mask0_3537_1206" style="mask-type:luminance" maskUnits="userSpaceOnUse" x="0" y="0" width="68" height="68">
<path fill-rule="evenodd" clip-rule="evenodd" d="M0.667969 0.667236H67.2V67.1666H0.667969V0.667236Z" fill="white"/>
</mask>
<g mask="url(#mask0_3537_1206)">
<path fill-rule="evenodd" clip-rule="evenodd" d="M19.5013 5.6665C11.098 5.6665 5.66797 11.4232 5.66797 20.3298V47.5032C5.66797 56.4132 11.098 62.1665 19.5013 62.1665H48.3346C56.758 62.1665 62.2013 56.4132 62.2013 47.5032V20.3298C62.2013 11.4232 56.758 5.6665 48.3346 5.6665H19.5013ZM48.3346 67.1665H19.5013C8.23464 67.1665 0.667969 59.2632 0.667969 47.5032V20.3298C0.667969 8.56984 8.23464 0.666504 19.5013 0.666504H48.3346C59.618 0.666504 67.2013 8.56984 67.2013 20.3298V47.5032C67.2013 59.2632 59.618 67.1665 48.3346 67.1665Z" fill="#767676"/>
</g>
<path fill-rule="evenodd" clip-rule="evenodd" d="M11.6045 51.2679C10.9845 51.2679 10.3678 51.0412 9.88451 50.5812C8.88118 49.6346 8.84118 48.0479 9.79118 47.0512L14.8845 41.6746C17.5812 38.8112 22.1312 38.6712 25.0078 41.3712L28.2012 44.6112C29.0912 45.5112 30.5378 45.5279 31.4312 44.6479C31.7678 44.2512 39.0278 35.4346 39.0278 35.4346C40.4078 33.7612 42.3545 32.7279 44.5178 32.5146C46.6845 32.3246 48.7878 32.9546 50.4645 34.3312C50.6078 34.4479 50.7378 34.5612 58.0578 42.0779C59.0212 43.0646 59.0045 44.6479 58.0145 45.6112C57.0278 46.5812 55.4412 46.5512 54.4778 45.5646C54.4778 45.5646 47.6478 38.5546 47.1612 38.0812C46.6445 37.6579 45.8145 37.4112 44.9978 37.4912C44.1678 37.5746 43.4212 37.9712 42.8912 38.6146C35.1445 48.0112 35.0512 48.1012 34.9245 48.2246C32.0645 51.0312 27.4478 50.9846 24.6378 48.1179C24.6378 48.1179 21.5378 44.9712 21.4845 44.9079C20.7145 44.1946 19.3412 44.2412 18.5178 45.1112L13.4178 50.4879C12.9245 51.0079 12.2645 51.2679 11.6045 51.2679Z" fill="#767676"/>
<path fill-rule="evenodd" clip-rule="evenodd" d="M22.525 21.0962C20.6816 21.0962 19.1816 22.5962 19.1816 24.4429C19.1816 26.2895 20.6816 27.7929 22.5283 27.7929C24.375 27.7929 25.8783 26.2895 25.8783 24.4429C25.8783 22.5995 24.375 21.0995 22.525 21.0962ZM22.5283 32.7929C17.925 32.7929 14.1816 29.0462 14.1816 24.4429C14.1816 19.8395 17.925 16.0962 22.5283 16.0962C27.135 16.0995 30.8783 19.8462 30.8783 24.4429C30.8783 29.0462 27.1316 32.7929 22.5283 32.7929Z" fill="#767676"/>
</svg>