<svg xmlns="http://www.w3.org/2000/svg" width="24" height="23" viewBox="0 0 24 23" fill="none">
<path fill-rule="evenodd" clip-rule="evenodd" d="M22.2099 22.5963H13.748C13.265 22.5963 12.873 22.2043 12.873 21.7213C12.873 21.2383 13.265 20.8463 13.748 20.8463H22.2099C22.6929 20.8463 23.0849 21.2383 23.0849 21.7213C23.0849 22.2043 22.6929 22.5963 22.2099 22.5963Z" fill="black"/>
<mask id="mask0_3473_691" style="mask-type:luminance" maskUnits="userSpaceOnUse" x="0" y="0" width="21" height="23">
<path fill-rule="evenodd" clip-rule="evenodd" d="M0.333984 0.500183H20.378V22.5963H0.333984V0.500183Z" fill="white"/>
</mask>
<g mask="url(#mask0_3473_691)">
<path fill-rule="evenodd" clip-rule="evenodd" d="M13.296 2.85293L2.3118 16.5904C2.1123 16.8401 2.0388 17.1621 2.1123 17.4713L2.9068 20.8371L6.4523 20.7928C6.78947 20.7893 7.10097 20.6388 7.30747 20.3821C11.0606 15.6863 18.2158 6.73327 18.4188 6.47077C18.6101 6.16043 18.6848 5.72177 18.5845 5.29943C18.4818 4.8666 18.2123 4.4991 17.8238 4.2646C17.741 4.20743 15.7751 2.68143 15.7145 2.6336C14.9748 2.04093 13.8956 2.1436 13.296 2.85293ZM2.21614 22.5964C1.8113 22.5964 1.45897 22.3188 1.36447 21.9233L0.408971 17.8738C0.211804 17.0349 0.407804 16.1693 0.945638 15.4973L11.9356 1.7516C11.9403 1.74693 11.9438 1.7411 11.9485 1.73643C13.1536 0.2956 15.333 0.0832662 16.803 1.26277C16.8613 1.30827 18.8131 2.82493 18.8131 2.82493C19.5225 3.24727 20.0766 4.0021 20.2866 4.89577C20.4955 5.7801 20.3438 6.69243 19.8573 7.4636C19.8211 7.52077 19.7896 7.56977 8.67364 21.4764C8.13814 22.1438 7.33547 22.5323 6.4733 22.5428L2.2278 22.5964H2.21614Z" fill="black"/>
</g>
<path fill-rule="evenodd" clip-rule="evenodd" d="M16.928 10.6323C16.7413 10.6323 16.5546 10.5728 16.3948 10.4514L10.0341 5.56543C9.65147 5.27143 9.57914 4.7231 9.87314 4.3381C10.1683 3.95543 10.7166 3.88426 11.1005 4.17826L17.4623 9.0631C17.845 9.3571 17.9173 9.9066 17.6221 10.2904C17.4506 10.5144 17.1905 10.6323 16.928 10.6323Z" fill="black"/>
</svg>