<svg xmlns="http://www.w3.org/2000/svg" width="54" height="67" viewBox="0 0 54 67" fill="none">
<mask id="mask0_3537_151" style="mask-type:luminance" maskUnits="userSpaceOnUse" x="0" y="42" width="54" height="25">
<path fill-rule="evenodd" clip-rule="evenodd" d="M0.333496 42.3203H53.1332V66.9003H0.333496V42.3203Z" fill="white"/>
</mask>
<g mask="url(#mask0_3537_151)">
<path fill-rule="evenodd" clip-rule="evenodd" d="M26.7363 47.3203C12.533 47.3203 5.33301 49.7603 5.33301 54.577C5.33301 59.437 12.533 61.9003 26.7363 61.9003C40.9363 61.9003 48.133 59.4603 48.133 54.6436C48.133 49.7836 40.9363 47.3203 26.7363 47.3203ZM26.7363 66.9003C20.2063 66.9003 0.333008 66.9003 0.333008 54.577C0.333008 43.5903 15.403 42.3203 26.7363 42.3203C33.2663 42.3203 53.133 42.3203 53.133 54.6436C53.133 65.6303 38.0663 66.9003 26.7363 66.9003Z" fill="#767676"/>
</g>
<mask id="mask1_3537_151" style="mask-type:luminance" maskUnits="userSpaceOnUse" x="9" y="0" width="36" height="37">
<path fill-rule="evenodd" clip-rule="evenodd" d="M9.0332 0.666992H44.4333V36.0623H9.0332V0.666992Z" fill="white"/>
</mask>
<g mask="url(#mask1_3537_151)">
<path fill-rule="evenodd" clip-rule="evenodd" d="M26.7366 5.42565C19.6 5.42565 13.7933 11.229 13.7933 18.3656C13.77 25.479 19.5333 31.279 26.64 31.3056L26.7366 33.6856V31.3056C33.87 31.3056 39.6733 25.499 39.6733 18.3656C39.6733 11.229 33.87 5.42565 26.7366 5.42565ZM26.7366 36.0623H26.63C16.89 36.0323 8.99998 28.089 9.03331 18.3556C9.03331 8.60565 16.9733 0.665649 26.7366 0.665649C36.4966 0.665649 44.4333 8.60565 44.4333 18.3656C44.4333 28.1256 36.4966 36.0623 26.7366 36.0623Z" fill="#767676"/>
</g>
</svg>