<svg xmlns="http://www.w3.org/2000/svg" width="55" height="49" viewBox="0 0 55 49" fill="none">
<path fill-rule="evenodd" clip-rule="evenodd" d="M14.4836 5.08537C15.5722 3.10686 16.7565 1.78426 18.5138 1.08481C21.734 -0.195632 33.2671 -0.195632 36.4848 1.08507C38.2412 1.78413 39.4259 3.10651 40.5154 5.08462L41.7401 7.43315C41.7681 7.47968 41.7939 7.5206 41.817 7.55582L41.921 7.69802C42.479 8.30605 43.4129 8.67337 44.0293 8.67337C49.8577 8.67337 54.5837 13.3983 54.5837 19.225V34.9198C54.5837 42.3521 48.5555 48.3802 41.1232 48.3802H13.8774C6.44332 48.3802 0.416992 42.3529 0.416992 34.9198V19.225C0.416992 13.3983 5.14297 8.67337 10.9714 8.67337C11.5855 8.67337 12.5207 8.30551 13.0796 7.69802C13.0908 7.68586 13.1054 7.66774 13.123 7.64375L13.2623 7.43011L14.4836 5.08537ZM36.9569 7.04452C36.2799 5.81538 35.6681 5.13246 34.9825 4.85958L34.6593 4.75215C31.872 3.96434 22.1769 4.00015 20.0154 4.85958C19.3302 5.13232 18.7191 5.81486 18.0429 7.04377L17.0005 9.05904L16.744 9.52333C16.5298 9.87955 16.3156 10.1802 16.071 10.4468C14.6993 11.9377 12.6702 12.7359 10.9714 12.7359L10.5269 12.7508C7.14923 12.9792 4.47949 15.7915 4.47949 19.225V34.9198C4.47949 40.1094 8.68712 44.3177 13.8774 44.3177H41.1232C46.3118 44.3177 50.5212 40.1084 50.5212 34.9198V19.225C50.5212 15.6422 47.6142 12.7359 44.0293 12.7359L43.5577 12.7162C41.9638 12.585 40.1734 11.8019 38.928 10.445C38.6866 10.182 38.4736 9.88341 38.2607 9.5302C38.2301 9.47953 38.1921 9.41282 38.1485 9.33389L37.8341 8.74416L36.9569 7.04452Z" fill="#767676"/>
<path d="M42.408 15.0209C43.9038 15.0209 45.1163 16.2334 45.1163 17.7292C45.1163 19.1181 44.0708 20.2629 42.7238 20.4193L42.408 20.4375C40.8879 20.4375 39.6753 19.225 39.6753 17.7292C39.6753 16.3403 40.7208 15.1955 42.0678 15.0391L42.408 15.0209Z" fill="#767676"/>
<path fill-rule="evenodd" clip-rule="evenodd" d="M16.8584 27.5551C16.8584 21.6774 21.6218 16.9141 27.4994 16.9141C33.3771 16.9141 38.1405 21.6774 38.1405 27.5551C38.1405 33.4328 33.3771 38.1961 27.4994 38.1961C21.6218 38.1961 16.8584 33.4328 16.8584 27.5551ZM34.078 27.5551C34.078 23.9211 31.1334 20.9766 27.4994 20.9766C23.8654 20.9766 20.9209 23.9211 20.9209 27.5551C20.9209 31.1891 23.8654 34.1336 27.4994 34.1336C31.1334 34.1336 34.078 31.1891 34.078 27.5551Z" fill="#767676"/>
</svg>