<svg xmlns="http://www.w3.org/2000/svg" width="24" height="24" viewBox="0 0 24 24" fill="none">
<path fill-rule="evenodd" clip-rule="evenodd" d="M9.20332 15.6595C8.97932 15.6595 8.75532 15.5743 8.58499 15.4028C8.24315 15.061 8.24315 14.508 8.58499 14.1661L14.1757 8.57547C14.5175 8.23363 15.0705 8.23363 15.4123 8.57547C15.7542 8.9173 15.7542 9.4703 15.4123 9.81213L9.82165 15.4028C9.65132 15.5743 9.42732 15.6595 9.20332 15.6595Z" fill="black"/>
<path fill-rule="evenodd" clip-rule="evenodd" d="M14.7962 15.6629C14.5722 15.6629 14.3482 15.5777 14.1779 15.4062L8.58255 9.80969C8.24071 9.46786 8.24071 8.91486 8.58255 8.57303C8.92555 8.23119 9.47855 8.23119 9.81921 8.57303L15.4145 14.1695C15.7564 14.5114 15.7564 15.0644 15.4145 15.4062C15.2442 15.5777 15.019 15.6629 14.7962 15.6629Z" fill="black"/>
<path fill-rule="evenodd" clip-rule="evenodd" d="M6.94266 2.08337C3.991 2.08337 2.0835 4.10521 2.0835 7.23537V16.7647C2.0835 19.8949 3.991 21.9167 6.94266 21.9167H17.0553C20.0082 21.9167 21.9168 19.8949 21.9168 16.7647V7.23537C21.9168 4.10521 20.0082 2.08337 17.0565 2.08337H6.94266ZM17.0553 23.6667H6.94266C2.98883 23.6667 0.333496 20.8924 0.333496 16.7647V7.23537C0.333496 3.10771 2.98883 0.333374 6.94266 0.333374H17.0565C21.0103 0.333374 23.6668 3.10771 23.6668 7.23537V16.7647C23.6668 20.8924 21.0103 23.6667 17.0553 23.6667Z" fill="black"/>
</svg>